<?xml version="1.0" encoding="utf-8"?>
<!-- Generator: Adobe Illustrator 18.0.0, SVG Export Plug-In . SVG Version: 6.00 Build 0)  -->
<!DOCTYPE svg PUBLIC "-//W3C//DTD SVG 1.1//EN" "http://www.w3.org/Graphics/SVG/1.1/DTD/svg11.dtd">
<svg version="1.1" id="Layer_1" focusable="false" xmlns="http://www.w3.org/2000/svg" xmlns:xlink="http://www.w3.org/1999/xlink"
	 x="0px" y="0px" viewBox="385 285 30 30" enable-background="new 385 285 30 30" xml:space="preserve">
<path fill="none" stroke="#FFFFFF" stroke-miterlimit="10" d="M412.9,306.7l-6.1-6.1c-1.2-1.2-3-1.4-4.4-0.8l-5.5-5.5v-3.2l-6.6-5
	l-3.3,3.3l5,6.6h3.2l5.5,5.5c-0.7,1.4-0.4,3.2,0.8,4.4l6.1,6.1c0.8,0.8,2,0.8,2.8,0l2.8-2.8C413.7,308.7,413.7,307.5,412.9,306.7
	L412.9,306.7z M404.2,297.9c1.4,0,2.9,0.6,3.9,1.7l1,1c0.8-0.3,1.5-0.9,2.3-1.5c1.9-1.9,2.5-4.6,2-7c-0.1-0.4-0.7-0.7-1-0.3
	l-3.9,3.9L405,295l-0.6-3.5l3.9-3.9c0.3-0.3,0.2-0.9-0.3-1c-2.4-0.6-5.2,0-7,2c-1.4,1.4-2.2,3.4-2.1,5.4l4.2,4.2
	C403.3,297.9,403.8,297.9,404.2,297.9L404.2,297.9z M398.8,302.1l-3-3L388,307c-1.3,1.3-1.3,3.4,0,4.6s3.4,1.3,4.6,0l6.4-6.4
	C398.7,304.3,398.6,303.2,398.8,302.1L398.8,302.1z M390.5,310.7c-0.7,0-1.2-0.6-1.2-1.2s0.6-1.2,1.2-1.2c0.7,0,1.2,0.6,1.2,1.2
	C391.7,310,391.1,310.7,390.5,310.7z"/>
</svg>
