<?xml version="1.0" encoding="utf-8"?>
<!-- Generator: Adobe Illustrator 18.0.0, SVG Export Plug-In . SVG Version: 6.00 Build 0)  -->
<!DOCTYPE svg PUBLIC "-//W3C//DTD SVG 1.1//EN" "http://www.w3.org/Graphics/SVG/1.1/DTD/svg11.dtd">
<svg version="1.1" id="Layer_1" focusable="false" xmlns="http://www.w3.org/2000/svg" xmlns:xlink="http://www.w3.org/1999/xlink"
	 x="0px" y="0px" viewBox="385 285 30 30" enable-background="new 385 285 30 30" xml:space="preserve">
<g>
	<g>
		<g>
			<path fill="none" stroke="#FFFFFF" stroke-miterlimit="10" d="M395.2,297.3c0.6,0,1.2-0.5,1.2-1.2v-4.5c0-2,1.6-3.6,3.6-3.6
				c2,0,3.6,1.6,3.6,3.6v4.5c0,0.6,0.5,1.2,1.2,1.2c0.6,0,1.2-0.5,1.2-1.2v-4.5c0-3.3-2.7-5.9-5.9-5.9c-3.3,0-5.9,2.7-5.9,5.9v4.5
				C394.1,296.8,394.6,297.3,395.2,297.3z"/>
			<path fill="none" stroke="#FFFFFF" stroke-miterlimit="10" d="M413.2,294.7h-6.1v1.4c0,1.3-1,2.3-2.3,2.3c-1.3,0-2.3-1-2.3-2.3
				v-1.4h-5v1.4c0,1.3-1,2.3-2.3,2.3s-2.3-1-2.3-2.3v-1.4h-6.2c-0.3,0-0.5,0.3-0.4,0.6l4,16.4c0.2,0.9,1.2,1.7,2.2,1.7h15
				c1,0,1.9-0.7,2.2-1.7l4-16.4C413.7,295,413.5,294.7,413.2,294.7z"/>
		</g>
	</g>
</g>
</svg>
