<?xml version="1.0" encoding="utf-8"?>
<!-- Generator: Adobe Illustrator 18.0.0, SVG Export Plug-In . SVG Version: 6.00 Build 0)  -->
<!DOCTYPE svg PUBLIC "-//W3C//DTD SVG 1.1//EN" "http://www.w3.org/Graphics/SVG/1.1/DTD/svg11.dtd">
<svg version="1.1" id="Layer_1" focusable="false" xmlns="http://www.w3.org/2000/svg" xmlns:xlink="http://www.w3.org/1999/xlink"
	 x="0px" y="0px" viewBox="385 285 30 30" enable-background="new 385 285 30 30" xml:space="preserve">
<path fill="none" stroke="#FFFFFF" stroke-miterlimit="10" d="M391.1,293.2h-2c-0.6,0-1,0.5-1,1v4.4h-1c-0.2,0-0.3,0.2-0.3,0.3v2
	c0,0.2,0.2,0.3,0.3,0.3h1v4.4c0,0.6,0.5,1,1,1h2c0.6,0,1-0.5,1-1v-11.5C392.1,293.7,391.6,293.2,391.1,293.2z M413.3,298.6h-1v-4.4
	c0-0.6-0.5-1-1-1h-2c-0.6,0-1,0.5-1,1v11.5c0,0.6,0.5,1,1,1h2c0.6,0,1-0.5,1-1v-4.4h1c0.2,0,0.3-0.2,0.3-0.3v-2
	C413.7,298.8,413.5,298.6,413.3,298.6z M405.9,290.5h-2c-0.6,0-1,0.5-1,1v7.1h-5.4v-7.1c0-0.6-0.5-1-1-1h-2c-0.6,0-1,0.5-1,1v16.9
	c0,0.6,0.5,1,1,1h2c0.6,0,1-0.5,1-1v-7.1h5.4v7.1c0,0.6,0.5,1,1,1h2c0.6,0,1-0.5,1-1v-16.9C406.9,291,406.5,290.5,405.9,290.5z"/>
</svg>
