<?xml version="1.0" encoding="utf-8"?>
<!-- Generator: Adobe Illustrator 18.0.0, SVG Export Plug-In . SVG Version: 6.00 Build 0)  -->
<!DOCTYPE svg PUBLIC "-//W3C//DTD SVG 1.1//EN" "http://www.w3.org/Graphics/SVG/1.1/DTD/svg11.dtd">
<svg version="1.1" id="Layer_1" focusable="false" xmlns="http://www.w3.org/2000/svg" xmlns:xlink="http://www.w3.org/1999/xlink"
	 x="0px" y="0px" viewBox="385 285 30 30" enable-background="new 385 285 30 30" xml:space="preserve">
<path fill="none" stroke="#FFFFFF" stroke-miterlimit="10" d="M400,287.3c0,0.2,0.8,5,0.8,6.8c0,2.8-1.5,4.7-3.6,5.5l0.7,12.6
	c0,0.7-0.5,1.3-1.3,1.3h-3.4c-0.7,0-1.3-0.6-1.3-1.3l0.7-12.6c-2.2-0.8-3.6-2.8-3.6-5.5c0-1.8,0.8-6.5,0.8-6.8
	c0.2-1.1,2.4-1.1,2.5,0.1v7.4c0.1,0.2,0.8,0.2,0.8,0c0.1-1.3,0.4-7.3,0.4-7.5c0.2-1.1,2.4-1.1,2.5,0c0,0.1,0.3,6.1,0.4,7.5
	c0,0.2,0.8,0.2,0.8,0v-7.4C397.6,286.2,399.8,286.2,400,287.3z M406.3,302.4l-0.8,9.8c-0.1,0.7,0.5,1.4,1.3,1.4h3
	c0.7,0,1.3-0.6,1.3-1.3v-24.5c0-0.7-0.6-1.3-1.3-1.3C405.4,286.5,398,295.9,406.3,302.4L406.3,302.4z"/>
</svg>
